# xmcd
#
# Track frame offsets:
#	150
#	15580
#	36395
#	51832
#	70280
#	89430
# Disc length: 1564 seconds
# Revision: 1
# Processed by: cddbd v1.5PL3 Copyright (c) Steve Scherf et al.
#
# Submitted via: libkcddb 0.10
#
DISCID=4c061a06
DTITLE=Jonny Glut - Eine Kabine im Herzen
DYEAR=1900
DGENRE=Unknown
TTITLE0=Reservier mir eine Kabine in deinem Herzen
TTITLE1=Kok-in-Ruum
TTITLE2=Uebern Deich
TTITLE3=Gloria
TTITLE4=Anker and Rosen
TTITLE5=Sand in den Schuhn (von Spiekeroog)
EXTD=
EXTT0=
EXTT1=
EXTT2=
EXTT3=
EXTT4=
EXTT5=
PLAYORDER=
